<svg width="48" height="48" viewBox="0 0 48 48" fill="none" xmlns="http://www.w3.org/2000/svg"><path d="M16 21.5C16 16.8 19.6 13 24 13C28.4 13 32 16.8 32 21.5C32 24.6 30.5 27 28.2 28.9C26.9 30 26.3 31.1 26.2 33H21.8C21.7 31.1 21.1 30 19.8 28.9C17.5 27 16 24.6 16 21.5Z" stroke="#FBBF24" stroke-width="2.6"/><path d="M21 37H27M22 41H26" stroke="#FBBF24" stroke-width="2.6" stroke-linecap="round"/><path d="M24 6V9M8 22H11M37 22H40M12.5 10.5L14.7 12.7M35.5 10.5L33.3 12.7" stroke="#FBBF24" stroke-width="2.3" stroke-linecap="round"/></svg>